# Blender v2.68 (sub 0) OBJ File: 'ray.blend'
# www.blender.org
o Cylinder
v -6.926254 0.582460 0.000004
v 6.926254 0.582452 -0.000004
v -6.926254 0.577546 -0.049888
v 6.926254 0.577538 -0.049896
v -6.926254 0.562994 -0.097862
v 6.926254 0.562985 -0.097871
v -6.926254 0.539361 -0.142076
v 6.926254 0.539352 -0.142085
v -6.926254 0.507557 -0.180829
v 6.926254 0.507548 -0.180838
v -6.926254 0.468803 -0.212634
v 6.926254 0.468794 -0.212643
v -6.926254 0.424589 -0.236266
v 6.926254 0.424580 -0.236275
v -6.926254 0.376615 -0.250819
v 6.926254 0.376606 -0.250828
v -6.926254 0.326723 -0.255733
v 6.926254 0.326714 -0.255742
v -6.926254 0.276831 -0.250819
v 6.926254 0.276822 -0.250828
v -6.926254 0.228856 -0.236266
v 6.926254 0.228847 -0.236275
v -6.926254 0.184643 -0.212634
v 6.926254 0.184634 -0.212643
v -6.926254 0.145889 -0.180829
v 6.926254 0.145880 -0.180838
v -6.926254 0.114085 -0.142076
v 6.926254 0.114076 -0.142085
v -6.926254 0.090452 -0.097862
v 6.926254 0.090443 -0.097871
v -6.926254 0.075899 -0.049887
v 6.926254 0.075890 -0.049896
v -6.926254 0.070985 0.000005
v 6.926254 0.070976 -0.000004
v -6.926254 0.075899 0.049896
v 6.926254 0.075890 0.049888
v -6.926254 0.090452 0.097871
v 6.926254 0.090443 0.097862
v -6.926254 0.114085 0.142085
v 6.926254 0.114076 0.142076
v -6.926254 0.145889 0.180838
v 6.926254 0.145880 0.180830
v -6.926254 0.184643 0.212643
v 6.926254 0.184634 0.212634
v -6.926254 0.228856 0.236275
v 6.926254 0.228848 0.236266
v -6.926254 0.276831 0.250828
v 6.926254 0.276822 0.250819
v -6.926254 0.326723 0.255742
v 6.926254 0.326714 0.255733
v -6.926254 0.376615 0.250828
v 6.926254 0.376606 0.250819
v -6.926254 0.424590 0.236275
v 6.926254 0.424581 0.236266
v -6.926254 0.468803 0.212642
v 6.926254 0.468794 0.212633
v -6.926254 0.507557 0.180838
v 6.926254 0.507548 0.180829
v -6.926254 0.539361 0.142084
v 6.926254 0.539352 0.142076
v -6.926254 0.562994 0.097871
v 6.926254 0.562985 0.097862
v -6.926254 0.577547 0.049896
v 6.926254 0.577538 0.049887
vn 0.000001 0.995185 -0.098017
vn 0.000000 0.956940 -0.290285
vn 0.000000 0.881922 -0.471396
vn 0.000000 0.773010 -0.634394
vn -0.000000 0.634394 -0.773010
vn -0.000000 0.471397 -0.881921
vn -0.000000 0.290285 -0.956940
vn -0.000001 0.098017 -0.995185
vn -0.000001 -0.098017 -0.995185
vn -0.000001 -0.290284 -0.956940
vn -0.000001 -0.471396 -0.881921
vn -0.000001 -0.634393 -0.773010
vn -0.000001 -0.773010 -0.634393
vn -0.000001 -0.881921 -0.471397
vn -0.000001 -0.956941 -0.290284
vn -0.000001 -0.995185 -0.098017
vn -0.000001 -0.995185 0.098018
vn -0.000000 -0.956940 0.290285
vn -0.000000 -0.881921 0.471397
vn -0.000000 -0.773010 0.634394
vn 0.000000 -0.634393 0.773011
vn 0.000000 -0.471396 0.881922
vn 0.000000 -0.290284 0.956941
vn 0.000001 -0.098016 0.995185
vn 0.000001 0.098018 0.995185
vn 0.000001 0.290286 0.956940
vn 0.000001 0.471398 0.881921
vn 0.000001 0.634394 0.773009
vn 0.000001 0.773011 0.634393
vn 0.000001 0.881922 0.471395
vn 1.000000 -0.000000 0.000000
vn 0.000001 0.995185 0.098016
vn 0.000001 0.956941 0.290283
vn -1.000000 0.000000 -0.000000
vn 0.000000 0.881921 -0.471397
vn 0.000000 0.773010 -0.634393
vn -0.000000 0.634393 -0.773010
vn -0.000001 -0.290285 -0.956940
vn -0.000001 -0.471397 -0.881921
vn -0.000001 -0.956940 -0.290284
vn 0.000000 -0.290283 0.956941
vn 0.000001 0.290285 0.956940
vn 0.000001 0.634394 0.773010
vn 0.000001 0.773012 0.634392
vn 0.000001 0.995185 0.098018
vn 0.000001 0.956941 0.290282
s off
f 1//1 2//1 3//1
f 3//2 4//2 5//2
f 5//3 6//3 7//3
f 7//4 8//4 9//4
f 9//5 10//5 11//5
f 11//6 12//6 13//6
f 13//7 14//7 15//7
f 15//8 16//8 17//8
f 17//9 18//9 19//9
f 19//10 20//10 21//10
f 21//11 22//11 23//11
f 23//12 24//12 25//12
f 25//13 26//13 27//13
f 27//14 28//14 29//14
f 29//15 30//15 31//15
f 31//16 32//16 33//16
f 33//17 34//17 35//17
f 35//18 36//18 37//18
f 37//19 38//19 39//19
f 39//20 40//20 41//20
f 41//21 42//21 43//21
f 43//22 44//22 45//22
f 45//23 46//23 47//23
f 47//24 48//24 49//24
f 49//25 50//25 51//25
f 51//26 52//26 53//26
f 53//27 54//27 55//27
f 55//28 56//28 57//28
f 57//29 58//29 59//29
f 59//30 60//30 61//30
f 4//31 2//31 6//31
f 63//32 64//32 1//32
f 61//33 62//33 63//33
f 1//34 3//34 63//34
f 2//1 4//1 3//1
f 4//2 6//2 5//2
f 6//35 8//35 7//35
f 8//36 10//36 9//36
f 10//37 12//37 11//37
f 12//6 14//6 13//6
f 14//7 16//7 15//7
f 16//8 18//8 17//8
f 18//9 20//9 19//9
f 20//38 22//38 21//38
f 22//39 24//39 23//39
f 24//12 26//12 25//12
f 26//13 28//13 27//13
f 28//14 30//14 29//14
f 30//40 32//40 31//40
f 32//16 34//16 33//16
f 34//17 36//17 35//17
f 36//18 38//18 37//18
f 38//19 40//19 39//19
f 40//20 42//20 41//20
f 42//21 44//21 43//21
f 44//22 46//22 45//22
f 46//41 48//41 47//41
f 48//24 50//24 49//24
f 50//25 52//25 51//25
f 52//42 54//42 53//42
f 54//27 56//27 55//27
f 56//43 58//43 57//43
f 58//44 60//44 59//44
f 60//30 62//30 61//30
f 2//31 64//31 6//31
f 64//31 62//31 6//31
f 62//31 60//31 6//31
f 60//31 58//31 6//31
f 58//31 56//31 6//31
f 56//31 54//31 6//31
f 54//31 52//31 6//31
f 52//31 50//31 6//31
f 50//31 48//31 6//31
f 48//31 46//31 6//31
f 46//31 44//31 6//31
f 44//31 42//31 40//31
f 6//31 44//31 40//31
f 8//31 6//31 40//31
f 8//31 40//31 38//31
f 8//31 38//31 36//31
f 10//31 8//31 36//31
f 14//31 18//31 16//31
f 12//31 10//31 36//31
f 14//31 12//31 18//31
f 12//31 36//31 18//31
f 36//31 34//31 18//31
f 34//31 32//31 18//31
f 32//31 30//31 18//31
f 30//31 28//31 18//31
f 28//31 26//31 18//31
f 26//31 24//31 18//31
f 24//31 22//31 18//31
f 22//31 20//31 18//31
f 64//45 2//45 1//45
f 62//46 64//46 63//46
f 3//34 5//34 63//34
f 5//34 7//34 63//34
f 7//34 9//34 63//34
f 9//34 11//34 63//34
f 11//34 13//34 63//34
f 13//34 15//34 63//34
f 15//34 17//34 63//34
f 17//34 19//34 63//34
f 19//34 21//34 63//34
f 21//34 23//34 63//34
f 23//34 25//34 63//34
f 47//34 43//34 45//34
f 49//34 43//34 47//34
f 51//34 43//34 49//34
f 25//34 27//34 63//34
f 27//34 29//34 31//34
f 63//34 27//34 31//34
f 61//34 63//34 59//34
f 63//34 31//34 59//34
f 43//34 39//34 41//34
f 51//34 39//34 43//34
f 59//34 55//34 57//34
f 59//34 31//34 55//34
f 31//34 33//34 55//34
f 33//34 35//34 55//34
f 55//34 35//34 53//34
f 35//34 37//34 53//34
f 37//34 39//34 53//34
f 39//34 51//34 53//34
